# File created by Blade
# Date/Time:  Wed Apr 08 16:19:59 2015
# Frame Rate: 120.000 fps
#------------------------------------------------------
:FULLY-SPECIFIED
:DEGREES
1812
root -19.488298 29.828511 0.656321 373.535314 -63.428684 -446.336040
Spine -66.173325 -21.062963 -1.096728
Head -87.739537 -9.199573 8.344650
LeftShoulder -10.694843 1.425842 32.147866
LeftArm 200.368718 -76.320117 -156.234296
LeftForeArm -32.691910 -0.000000 -5.632387
LeftHand 15.315619 -0.000000 112.255331
LeftHandThumb1 -26.253704 0.000000 33.147579
RightShoulder -22.870247 44.000108 -57.153615
RightArm 30.485358 53.265483 -6.995169
RightForeArm 40.667335 -0.000000 -5.070939
RightHand 21.622249 0.000000 -102.438363
RightHandThumb1 -24.326973 -0.000000 -32.862282
LeftUpLeg 18.523964 -9.408124 24.381608
LeftLeg 35.035258 -0.000000 -0.000000
LeftFoot 5.149630 -10.391645 -16.253679
LeftToeBase -40.966076 -0.000000 0.000000
RightUpLeg -90.269006 -44.374464 -18.785773
RightLeg 88.757112 -0.000000 -0.000000
RightFoot 40.146913 -7.258704 -5.353950
RightToeBase 31.051411 -0.000000 -0.000000
1813
root -19.487360 29.811565 0.639783 373.611603 -63.567439 -446.348834
Spine -66.152645 -21.003198 -1.053093
Head -87.737567 -9.128732 8.394536
LeftShoulder -10.749969 1.342387 32.275432
LeftArm 200.486635 -76.207729 -156.538754
LeftForeArm -32.531400 -0.000000 -5.458713
LeftHand 15.282910 0.000000 112.416362
LeftHandThumb1 -26.253704 0.000000 33.147579
RightShoulder -22.867221 44.002424 -57.045972
RightArm 30.352271 53.417742 -7.120420
RightForeArm 40.646327 0.000000 -4.954870
RightHand 21.597612 -0.000000 -102.487499
RightHandThumb1 -24.326973 -0.000000 -32.862282
LeftUpLeg 18.460855 -9.268105 24.380617
LeftLeg 35.119048 -0.000000 -0.000000
LeftFoot 5.124671 -10.446343 -16.270250
LeftToeBase -40.948209 -0.000000 0.000000
RightUpLeg -89.815513 -43.955380 -18.849820
RightLeg 92.004266 -0.000000 -0.000000
RightFoot 40.212427 -6.970702 -5.545558
RightToeBase 31.179656 -0.000000 -0.000000
1814
root -19.486511 29.796313 0.624892 373.694729 -63.724028 -446.383003
Spine -66.120840 -20.912327 -1.006132
Head -87.738298 -9.096015 8.499678
LeftShoulder -10.725217 1.205714 32.365019
LeftArm 201.152878 -76.286173 -157.290000
LeftForeArm -32.506077 -0.000000 -5.392459
LeftHand 15.278126 0.000000 112.456959
LeftHandThumb1 -26.253704 0.000000 33.147579
RightShoulder -22.895869 44.042381 -56.968290
RightArm 30.234247 53.392325 -7.332332
RightForeArm 40.808075 -0.000000 -4.978432
RightHand 21.612626 0.000000 -102.490035
RightHandThumb1 -24.326973 -0.000000 -32.862282
LeftUpLeg 18.425993 -9.086696 24.400499
LeftLeg 35.192313 -0.000000 -0.000000
LeftFoot 5.108738 -10.530064 -16.316132
LeftToeBase -40.915314 -0.000000 0.000000
RightUpLeg -89.209856 -43.470894 -18.949369
RightLeg 95.181897 -0.000000 -0.000000
RightFoot 40.272473 -6.633802 -5.629054
RightToeBase 31.112142 -0.000000 -0.000000
1815
root -19.487589 29.780045 0.609583 373.719095 -63.874519 -446.355722
Spine -66.081682 -20.843086 -0.974496
Head -87.738158 -9.055694 8.626249
LeftShoulder -10.656387 1.096873 32.444241
LeftArm 202.102220 -76.309424 -158.334233
LeftForeArm -32.407672 -0.000000 -5.258167
LeftHand 15.243584 0.000000 112.460231
LeftHandThumb1 -26.253704 0.000000 33.147579
RightShoulder -22.894817 44.077668 -56.882676
RightArm 30.051665 53.339728 -7.625982
RightForeArm 41.016672 0.000000 -5.062144
RightHand 21.645881 -0.000000 -102.497401
RightHandThumb1 -24.326973 -0.000000 -32.862282
LeftUpLeg 18.378290 -8.913116 24.407106
LeftLeg 35.274900 -0.000000 -0.000000
LeftFoot 5.088773 -10.641424 -16.312345
LeftToeBase -40.932221 -0.000000 0.000000
RightUpLeg -88.412206 -43.012012 -19.206249
RightLeg 98.316092 -0.000000 -0.000000
RightFoot 40.317264 -5.557399 -5.689078
RightToeBase 31.118204 -0.000000 -0.000000
1816
root -19.490828 29.765555 0.595031 373.670372 -64.009442 -446.261996
Spine -66.019850 -20.809308 -0.971860
Head -87.693914 -8.983999 8.737169
LeftShoulder -10.583012 1.001014 32.531406
LeftArm 203.545290 -76.526593 -159.827124
LeftForeArm -32.549491 -0.000000 -5.247777
LeftHand 15.332642 -0.000000 112.345515
LeftHandThumb1 -26.253704 0.000000 33.147579
RightShoulder -22.900559 44.110417 -56.840778
RightArm 29.809440 53.321302 -7.894037
RightForeArm 41.218692 -0.000000 -5.117566
RightHand 21.683479 -0.000000 -102.531262
RightHandThumb1 -24.326973 -0.000000 -32.862282
LeftUpLeg 18.341654 -8.741082 24.403290
LeftLeg 35.341664 -0.000000 -0.000000
LeftFoot 5.085438 -10.750755 -16.325263
LeftToeBase -41.008550 -0.000000 0.000000
RightUpLeg -87.671632 -42.578815 -19.271201
RightLeg 101.400822 -0.000000 -0.000000
RightFoot 40.496698 -5.175046 -5.715882
RightToeBase 30.979857 -0.000000 -0.000000
1817
root -19.492041 29.752250 0.581319 373.645484 -64.145705 -446.189608
Spine -65.973504 -20.776201 -0.947206
Head -87.686201 -8.897987 8.796188
LeftShoulder -10.539926 0.872100 32.622318
LeftArm 204.696600 -76.679426 -161.048841
LeftForeArm -32.595817 -0.000000 -5.169618
LeftHand 15.346301 0.000000 112.301300
LeftHandThumb1 -26.253704 0.000000 33.147579
RightShoulder -22.875748 44.123457 -56.778906
RightArm 29.556495 53.374348 -8.133573
RightForeArm 41.318602 -0.000000 -5.134110
RightHand 21.685621 -0.000000 -102.557810
RightHandThumb1 -24.326973 -0.000000 -32.862282
LeftUpLeg 18.311226 -8.562182 24.410023
LeftLeg 35.379471 -0.000000 -0.000000
LeftFoot 5.114924 -10.859263 -16.373714
LeftToeBase -41.015597 -0.000000 0.000000
RightUpLeg -86.858021 -42.128796 -19.262440
RightLeg 104.399231 -0.000000 -0.000000
RightFoot 40.664669 -4.915692 -5.718792
RightToeBase 31.137369 -0.000000 -0.000000
1818
root -19.491195 29.739534 0.569043 373.558888 -64.250937 -446.030954
Spine -65.946551 -20.791036 -0.917977
Head -87.683425 -8.792426 8.878000
LeftShoulder -10.557669 0.805840 32.725580
LeftArm 205.855679 -76.814456 -162.334546
LeftForeArm -32.672260 -0.000000 -5.052501
LeftHand 15.340285 0.000000 112.245941
LeftHandThumb1 -26.253704 0.000000 33.147579
RightShoulder -22.878978 44.159256 -56.779686
RightArm 29.282472 53.472994 -8.290325
RightForeArm 41.344144 -0.000000 -5.066351
RightHand 21.661530 -0.000000 -102.617951
RightHandThumb1 -24.326973 -0.000000 -32.862282
LeftUpLeg 18.254918 -8.409356 24.388803
LeftLeg 35.400589 -0.000000 -0.000000
LeftFoot 5.134768 -10.952934 -16.397355
LeftToeBase -41.018570 -0.000000 0.000000
RightUpLeg -85.941945 -41.728347 -19.284360
RightLeg 107.336049 -0.000000 -0.000000
RightFoot 40.899515 -4.614223 -5.561461
RightToeBase 31.031740 -0.000000 -0.000000
